<svg height="512pt" viewBox="0 0 512 512" width="512pt" xmlns="http://www.w3.org/2000/svg" xmlns:xlink="http://www.w3.org/1999/xlink"><linearGradient id="a" gradientTransform="matrix(1 0 0 -1 0 -15870)" gradientUnits="userSpaceOnUse" x1="0" x2="512" y1="-16126" y2="-16126"><stop offset="0" stop-color="#00f38d"/><stop offset="1" stop-color="#009eff"/></linearGradient><path d="m512 256c0 141.386719-114.613281 256-256 256s-256-114.613281-256-256 114.613281-256 256-256 256 114.613281 256 256zm0 0" fill="url(#a)"/><g fill="#fff"><path d="m374.390625 255.921875c0-65.28125-53.109375-118.390625-118.390625-118.390625s-118.390625 53.109375-118.390625 118.390625 53.109375 118.390625 118.390625 118.390625 118.390625-53.109375 118.390625-118.390625zm-118.390625 88.390625c-48.738281 0-88.390625-39.652344-88.390625-88.390625s39.652344-88.390625 88.390625-88.390625 88.390625 39.652344 88.390625 88.390625-39.652344 88.390625-88.390625 88.390625zm0 0"/><path d="m289.398438 268.960938c-.839844 2.230468-8.890626 21.796874-32.535157 21.796874-24.589843 0-34.125-21.535156-34.519531-22.449218l.054688.125-27.785157 11.3125c.683594 1.675781 17.21875 41.011718 62.25 41.011718 45.554688 0 60.175781-39.976562 60.777344-41.679687l-28.292969-9.976563zm0 0"/><path d="m231.445312 223.042969c0 7.140625-5.785156 12.925781-12.925781 12.925781-7.136719 0-12.921875-5.785156-12.921875-12.925781 0-7.136719 5.785156-12.921875 12.921875-12.921875 7.140625 0 12.925781 5.785156 12.925781 12.921875zm0 0"/><path d="m307.050781 223.042969c0 7.140625-5.789062 12.925781-12.925781 12.925781s-12.925781-5.785156-12.925781-12.925781c0-7.136719 5.789062-12.921875 12.925781-12.921875s12.925781 5.785156 12.925781 12.921875zm0 0"/><path d="m118.5 129.347656c0-5.980468 4.867188-10.847656 10.847656-10.847656h52.339844v-30h-52.339844c-22.523437 0-40.847656 18.324219-40.847656 40.847656v51.695313h30zm0 0"/><path d="m382.652344 88.5h-52.339844v30h52.339844c5.980468 0 10.847656 4.867188 10.847656 10.847656v51.695313h30v-51.695313c0-22.523437-18.324219-40.847656-40.847656-40.847656zm0 0"/><path d="m118.5 382.652344v-51.695313h-30v51.695313c0 22.523437 18.324219 40.847656 40.847656 40.847656h52.339844v-30h-52.339844c-5.980468 0-10.847656-4.867188-10.847656-10.847656zm0 0"/><path d="m393.5 382.652344c0 5.980468-4.867188 10.847656-10.847656 10.847656h-52.339844v30h52.339844c22.523437 0 40.847656-18.324219 40.847656-40.847656v-51.695313h-30zm0 0"/></g></svg>